<?xml version="1.0" encoding="UTF-8"?>
<svg id="logosandtypes_com" data-name="logosandtypes com" xmlns="http://www.w3.org/2000/svg" viewBox="0 0 150 150">
  <defs>
    <style>
      .cls-1 {
        fill: #25294c;
      }

      .cls-2 {
        fill: none;
      }
    </style>
  </defs>
  <path id="Layer_3" data-name="Layer 3" class="cls-2" d="M0,0H150V150H0V0Z"/>
  <path class="cls-1" d="M148.1,120.23L120.86,25.14c-.43-1.36-1.46-2.44-2.79-2.93-1.62-.6-3.43-.27-4.73,.85l-38.29,33.56L36.68,23.15c-1.15-1.02-2.74-1.42-4.24-1.06-1.62,.45-2.88,1.72-3.31,3.34L1.92,120.25c-.48,1.57-.11,3.27,.97,4.5,1.11,1.2,2.75,1.75,4.35,1.44l67.8-12.73,67.83,12.76c2.59,.38,4.99-1.42,5.36-4,.1-.66,.05-1.34-.13-1.98ZM104.96,40.66l-14.58,29.25-9.47-8.28,24.04-20.97Zm-35.76,21.06l-9.47,8.28-14.58-29.3,24.04,21.02Zm-35.1-26.03l19.64,39.55L12.47,111.33,34.1,35.69Zm-15.6,80.47l38.77-33.8,12.12,24.35-50.88,9.44Zm44.71-39.14l11.83-10.29,11.83,10.29-11.83,23.67-11.83-23.67Zm17.44,29.58l12.12-24.35,38.91,34.06-51.02-9.7Zm15.69-31.36l19.6-39.4,21.56,75.33-41.16-35.93Z"/>
</svg>